<svg width="24px" height="24px" viewBox="0 0 16 16" fill="#000000" xmlns="http://www.w3.org/2000/svg">
  <path fill-rule="evenodd" clip-rule="evenodd"
    d="M8.00004 1.33301C11.6819 1.33301 14.6667 4.31778 14.6667 7.99967C14.6667 11.6816 11.6819 14.6663 8.00004 14.6663C4.31814 14.6663 1.33337 11.6816 1.33337 7.99967C1.33337 4.31778 4.31814 1.33301 8.00004 1.33301ZM8.00004 2.66634C5.05452 2.66634 2.66671 5.05416 2.66671 7.99967C2.66671 10.9452 5.05452 13.333 8.00004 13.333C10.9456 13.333 13.3334 10.9452 13.3334 7.99967C13.3334 5.05416 10.9456 2.66634 8.00004 2.66634ZM8.00004 10.6663C8.36823 10.6663 8.66671 10.9648 8.66671 11.333C8.66671 11.7012 8.36823 11.9997 8.00004 11.9997C7.63185 11.9997 7.33337 11.7012 7.33337 11.333C7.33337 10.9648 7.63185 10.6663 8.00004 10.6663ZM8.00004 3.99967C8.36823 3.99967 8.66671 4.29815 8.66671 4.66634V8.66634C8.66671 9.03453 8.36823 9.33301 8.00004 9.33301C7.63185 9.33301 7.33337 9.03453 7.33337 8.66634V4.66634C7.33337 4.29815 7.63185 3.99967 8.00004 3.99967Z"/>
</svg>